<?xml version="1.0" encoding="UTF-8" standalone="no"?>
<svg
   xmlns:dc="http://purl.org/dc/elements/1.1/"
   xmlns:cc="http://creativecommons.org/ns#"
   xmlns:rdf="http://www.w3.org/1999/02/22-rdf-syntax-ns#"
   xmlns:svg="http://www.w3.org/2000/svg"
   xmlns="http://www.w3.org/2000/svg"
   xmlns:sodipodi="http://sodipodi.sourceforge.net/DTD/sodipodi-0.dtd"
   xmlns:inkscape="http://www.inkscape.org/namespaces/inkscape"
   version="1.1"
   id="Layer_1"
   x="0px"
   y="0px"
   width="100px"
   height="100px"
   viewBox="0 0 100 100"
   enable-background="new 0 0 100 100"
   xml:space="preserve"
   inkscape:version="0.48.3.1 r9886"
   sodipodi:docname="logo.svg"
   inkscape:export-filename="/home/dario/Forge/pirata.cat/yoavalo/images/apple-touch-icon.png"
   inkscape:export-xdpi="102.6"
   inkscape:export-ydpi="102.6"><metadata
   id="metadata11"><rdf:RDF><cc:Work
       rdf:about=""><dc:format>image/svg+xml</dc:format><dc:type
         rdf:resource="http://purl.org/dc/dcmitype/StillImage" /><dc:title></dc:title></cc:Work></rdf:RDF></metadata><defs
   id="defs9" /><sodipodi:namedview
   pagecolor="#ffffff"
   bordercolor="#666666"
   borderopacity="1"
   objecttolerance="10"
   gridtolerance="10"
   guidetolerance="10"
   inkscape:pageopacity="0"
   inkscape:pageshadow="2"
   inkscape:window-width="1360"
   inkscape:window-height="715"
   id="namedview7"
   showgrid="false"
   inkscape:zoom="2.36"
   inkscape:cx="-25"
   inkscape:cy="50"
   inkscape:window-x="0"
   inkscape:window-y="0"
   inkscape:window-maximized="1"
   inkscape:current-layer="g3779" />

<g
   id="g3779"
   transform="translate(2.293,-5e-4)"><path
     style="fill:#8fd446;fill-opacity:1"
     id="path3"
     d="M 94.414,1.001 C 83.248,5.244 42.827,63.756 42.827,63.756 L 28.561,40.739 16.263,48.137 37.915,81.398 h 9.602 c 0,0 32.87,-46.548 46.897,-58.065 V 1.001 z"
     inkscape:connector-curvature="0" /><path
     style="fill:#8fd446;fill-opacity:1"
     id="path5"
     d="m 6.62,83.479 c 0,5.394 4.373,9.768 9.768,9.768 l 52.468,0.062 c 5.395,0 9.768,-4.373 9.768,-9.768 L 78.539,52.067 h 5.787 V 83.604 C 84.325,92.107 77.433,99 68.93,99 L 15.76,98.938 C 7.65,98.938 1.077,92.363 1.077,84.256 L 1,31.161 C 1,22.658 7.893,15.765 16.396,15.765 L 65.205,15.686 V 21.48 L 16.467,21.458 c -5.394,0 -9.768,4.372 -9.768,9.768 L 6.62,83.479 z"
     inkscape:connector-curvature="0" /></g>
</svg>